PathFileType	4	(X/Y/Z)	C:/Users/beibeiliu/ov580/test_trc/User2\sequence.33_training_dense_left.trc
DataRate	CameraRate	NumFrames	NumMarkers	Units	OrigDataRate	OrigDataStartFrame	OrigNumFrames
120	120	16	19	mm	120	107	424
Frame#	Time	ThumbCMC			ThumbMCP			ThumbIP			ThumbTip			IndexMCP			IndexPIP			IndexTip			MiddleMCP			MiddlePIP			MiddleTip			RingMCP			RingPIP			RingTip			PinkyMCP			PinkyPIP			PinkyTip			BackHand1			BackHand2			BackHand3	
		X0	Y0	Z0	X1	Y1	Z1	X2	Y2	Z2	X3	Y3	Z3	X4	Y4	Z4	X5	Y5	Z5	X6	Y6	Z6	X7	Y7	Z7	X8	Y8	Z8	X9	Y9	Z9	X10	Y10	Z10	X11	Y11	Z11	X12	Y12	Z12	X13	Y13	Z13	X14	Y14	Z14	X15	Y15	Z15	X16	Y16	Z16	X17	Y17	Z17	X18	Y18	Z18	
106	0.883333	-235.282	-38.44	44.9918	-212.153	-20.6958	27.7923	-178.907	-21.392	10.8447	-151.554	-32.654	6.42331	-170.052	-73.4087	4.3905	-148.086	-56.6843	19.6741	-166.672	-41.1554	46.7084	-159.403	-89.0123	21.2213	-142.388	-64.9786	38.9524	-169.049	-46.4559	65.5605	-157.321	-96.236	42.1296	-145.399	-71.4684	60.0389	-175.237	-57.8338	75.1038	-156.821	-99.1776	62.0962	-153.191	-72.2316	79.7244	-186.741	-62.6816	88.8913	-215.595	-111.858	57.1058	-245.669	-100.853	80.2728	-241.671	-79.1485	44.1633	
107	0.891667	-234.991	-40.0672	48.0746	-209.065	-25.0593	26.1103	-180.443	-21.536	12.5275	-152.712	-30.5397	5.71047	-174.052	-73.8676	3.88593	-148.477	-57.5924	19.6752	-166.944	-42.2931	47.6476	-159.655	-88.5334	22.9557	-143.278	-62.0168	41.0275	-167.037	-46.5949	64.4842	-155.269	-95.4938	44.7449	-144.017	-71.8396	62.1015	-176.857	-55.2501	73.3661	-157.044	-100.717	62.985	-154.166	-71.9961	76.7618	-184.431	-61.7137	85.5139	-216.229	-112.942	58.951	-245.059	-100.719	80.8982	-242.236	-81.942	43.4665	
108	0.9	-235.85	-40.1009	47.4199	-210.169	-26.518	28.7917	-180.523	-20.3394	11.5385	-154.774	-27.409	7.69967	-173.346	-73.6622	4.54368	-148.799	-56.4997	20.3621	-169.899	-37.6301	46.3819	-160.109	-87.0253	21.0566	-143.934	-60.7617	42.438	-170.859	-43.4796	63.1946	-152.781	-93.7943	45.5067	-144.783	-70.7079	61.8807	-178.193	-56.4311	73.9504	-157.235	-100.254	64.4288	-154.862	-69.696	79.8853	-182.551	-59.2596	85.0068	-217.763	-111.149	56.9779	-245.014	-101.889	77.9373	-239.513	-81.9637	44.5916	
109	0.908333	-234.21	-42.0285	46.0616	-211.892	-22.7144	26.657	-180.737	-21.1251	13.4088	-153.362	-30.9877	7.30402	-171.67	-74.6681	7.49849	-150.511	-57.5726	19.262	-167.312	-39.6466	45.1191	-164.996	-89.3819	22.6268	-143.185	-61.9043	41.0782	-167.926	-46.5839	65.2695	-155.281	-94.7899	44.2427	-147.937	-67.9841	61.8274	-176.093	-57.1276	75.2321	-156.11	-100.959	64.9561	-155.776	-69.3317	75.8745	-183.81	-60.1775	88.2421	-219.309	-111.09	60.7281	-247.692	-101.715	79.5789	-243.89	-81.4254	45.5818	
110	0.916667	-237.993	-38.9994	47.9583	-210.418	-23.1776	25.7411	-180.071	-22.0078	12.539	-155.974	-33.5065	10.3497	-174.059	-74.8536	6.37463	-151.205	-57.6555	23.0486	-167.604	-40.3935	45.9839	-162.817	-87.9853	21.7863	-143.413	-63.493	41.9712	-172.354	-43.4266	64.9451	-156.802	-94.4321	42.6532	-146.987	-69.4482	59.8983	-177.897	-57.4448	75.713	-158.998	-100.403	62.8721	-155.438	-71.0959	76.1333	-183.111	-62.194	85.1594	-218.986	-111.718	61.4566	-246.688	-102.379	81.8335	-244.631	-81.1541	45.074	
111	0.925	-237.448	-40.9297	47.4399	-214.809	-23.496	30.7953	-183.688	-20.6585	13.5303	-156.451	-29.0264	8.37548	-175.068	-74.8879	5.55692	-151.1	-58.9148	19.8135	-171.353	-41.8084	46.9589	-163.4	-88.3524	19.7602	-143.861	-66.0971	40.0634	-170.799	-45.8119	65.427	-156.73	-95.7511	44.8109	-146.623	-70.6798	61.0782	-177.877	-58.0721	74.6249	-160.027	-104.468	65.1224	-153.329	-72.523	77.8706	-187.256	-61.525	88.8009	-216.7	-111.478	56.6613	-246.521	-101.204	79.9842	-243.726	-83.2011	48.5404	
112	0.933333	-239.792	-38.5178	47.3406	-213.419	-23.3846	28.26	-183.718	-20.6607	13.1219	-155.261	-29.0692	7.48072	-176.961	-74.627	4.24435	-152.314	-54.3402	18.4319	-173.316	-39.9726	46.2464	-166.019	-92.1926	23.2157	-144.475	-64.5607	35.6397	-167.525	-44.8911	61.9417	-156.179	-94.6348	43.3939	-147.179	-70.1871	58.8879	-178.212	-56.7527	71.8371	-158.406	-99.658	63.6996	-155.927	-72.2121	74.4408	-187.946	-62.9515	84.5542	-219.28	-111.576	60.7175	-245.037	-101.713	78.7466	-243.879	-83.7976	45.4663	
113	0.941667	-237.97	-38.7866	44.5737	-216.227	-23.1446	29.0776	-184.091	-18.9033	11.3199	-155.904	-29.4253	5.52432	-178.567	-74.9526	4.40394	-152.491	-55.8107	19.1969	-172.325	-39.61	45.1123	-162.109	-90.3242	22.6834	-145.119	-64.2642	35.2207	-173.388	-45.2667	63.9301	-156.397	-93.9035	41.2527	-148.619	-69.7117	55.9621	-181.262	-56.8894	73.527	-161.057	-101.752	63.8484	-157.957	-69.3148	78.1836	-190.399	-62.5718	86.5873	-219.651	-110.042	55.2238	-246.048	-103.809	81.3871	-245.793	-81.1008	46.6497	
114	0.95	-240.127	-40.6157	49.5391	-213.346	-25.2961	27.0513	-183.172	-21.8376	10.3022	-158.791	-29.3294	8.01276	-178.538	-74.8503	2.3503	-153.583	-55.7956	17.104	-168.331	-43.1075	44.7104	-167.309	-88.1803	18.4363	-146.596	-62.5479	39.3971	-168.332	-44.0009	60.0292	-155.406	-95.1022	42.2748	-148.218	-71.0624	55.6047	-177.936	-55.8102	71.3251	-163.788	-102.309	61.2061	-158.271	-70.7576	73.2875	-188.029	-62.945	85.7755	-221.03	-110.196	59.8195	-243.464	-104.827	79.6252	-246.141	-83.9314	47.7851	
115	0.958333	-237.562	-41.8059	47.8835	-216.241	-24.6	30.6561	-182.989	-19.8774	9.74082	-158.69	-28.9364	5.97034	-179.64	-74.5889	2.13907	-152.845	-55.1439	16.8621	-167.829	-39.7356	41.5677	-165.222	-90.4646	20.9686	-146.13	-63.8951	41.0754	-169.143	-44.9751	59.9519	-160.759	-95.3845	39.7492	-149.771	-66.5946	57.6769	-179.749	-55.8482	70.0672	-159.617	-100.444	62.1223	-157.938	-71.3924	77.1532	-190.705	-62.5275	81.9123	-219.238	-111.193	58.0872	-246.043	-102.542	78.2745	-245.403	-79.7186	44.0762	
116	0.966667	-239.393	-40.2718	49.3271	-212.756	-25.2019	26.5809	-185.104	-18.8159	11.1493	-158.199	-31.2451	6.5621	-179.228	-74.9873	4.41065	-152.859	-59.5466	15.7961	-169.32	-40.5065	43.2425	-166.749	-91.3802	20.8559	-145.333	-62.875	36.9275	-170.766	-46.8748	62.9928	-159.572	-96.827	41.6168	-149.11	-67.7408	56.6544	-178.295	-56.5386	72.9	-160.773	-99.1478	61.1525	-156.86	-71.692	77.3647	-188.847	-62.3136	85.6295	-221.507	-110.349	54.5282	-246.056	-105.476	79.6294	-247.541	-80.768	45.4869	
117	0.975	-238.492	-38.6691	48.514	-212.981	-21.9874	25.1927	-185.286	-19.563	11.3131	-159.018	-29.5458	6.30056	-175.408	-75.4088	4.5686	-152.793	-55.5623	17.0176	-170.886	-40.9304	44.3356	-166.34	-91.454	20.4829	-144.464	-67.4171	38.4288	-167.998	-48.6614	63.493	-159.25	-94.1584	39.4832	-147.197	-70.884	53.9137	-178.732	-57.4954	72.1013	-161.4	-102.97	63.567	-158.108	-71.4218	77.7113	-189.977	-61.6645	84.0945	-218.607	-111.245	54.3557	-247.765	-99.4964	79.3566	-243.284	-83.5529	45.9925	
118	0.983333	-236.061	-41.4771	48.1975	-212.217	-24.2682	25.6633	-183.42	-23.0981	11.0634	-156.169	-27.6885	3.40433	-176.636	-73.5626	2.1544	-152.496	-54.58	17.3877	-169.801	-41.6917	43.9477	-167.039	-89.1067	18.5462	-144.917	-64.7761	34.3747	-169.33	-46.4502	62.3535	-155.044	-95.2117	42.0129	-146.212	-71.5245	57.2622	-180.116	-57.2808	73.3852	-161.06	-101.965	62.7498	-156.321	-72.2586	77.0747	-189.011	-61.5628	82.6497	-220.298	-112.585	57.4338	-246.775	-102.186	80.4377	-245.898	-78.9899	46.3997	
119	0.991667	-235.606	-41.9226	47.5241	-212.996	-23.3505	24.6033	-182.133	-21.4277	8.3843	-155.777	-30.8087	4.97952	-179.978	-73.5933	2.28961	-153.015	-56.2657	14.6136	-171.343	-40.6715	43.6616	-164.428	-90.6533	19.6517	-144.556	-62.8001	38.2267	-171.592	-44.2628	62.9551	-156.146	-95.658	40.0352	-147.635	-68.4819	54.7598	-177.147	-57.5009	72.5262	-160.478	-100.033	61.7915	-158.288	-70.674	77.5279	-191.038	-62.9762	81.1471	-218.318	-113.767	54.9081	-244.382	-104.058	79.766	-245.824	-82.9896	47.9576	
120	1	-238.864	-39.4803	47.0224	-215.007	-25.5095	29.5017	-182.923	-22.5504	11.9008	-159.245	-28.23	7.07866	-175.811	-75.5493	3.11058	-153.603	-58.6009	15.5971	-169.986	-39.8926	42.1455	-167.52	-91.796	20.9939	-145.767	-62.9483	36.9293	-168.958	-46.4493	61.6971	-160.855	-96.412	38.6724	-146.935	-70.7339	53.856	-179.726	-57.6374	73.1587	-160.14	-97.0266	60.7859	-161.029	-67.0959	74.9132	-187.468	-61.4828	83.3487	-220.403	-112.669	59.3974	-244.58	-103.022	81.501	-243.93	-81.1386	43.0298	
121	1.00833	-238.311	-38.8104	45.6191	-215.306	-23.7834	29.7544	-184.287	-20.7689	10.5212	-155.287	-31.2408	3.92651	-176.262	-77.0046	5.14412	-153.643	-59.4537	16.4923	-173.691	-43.5036	45.7015	-163.498	-89.585	20.7281	-145.999	-64.1074	33.1371	-168.216	-46.7609	62.7663	-158.392	-97.8954	42.9091	-146.71	-71.5788	58.2609	-177.655	-58.3022	73.1442	-160.708	-101.765	63.0203	-157.31	-70.2592	76.8836	-187.692	-63.4	85.0577	-218.172	-111.402	56.6593	-245.88	-102.348	82.8909	-245.978	-82.6068	45.7127	
